<svg aria-roledescription="er" role="graphics-document document" viewBox="0 0 387.5390625 664" style="max-width: 100%;" xmlns="http://www.w3.org/2000/svg" width="871px" id="graph-div" height="729px" xmlns:xlink="http://www.w3.org/1999/xlink"><style>@import url("https://cdnjs.cloudflare.com/ajax/libs/font-awesome/6.4.0/css/all.min.css");'</style><style>#graph-div{font-family:"trebuchet ms",verdana,arial,sans-serif;font-size:16px;fill:#ccc;}#graph-div .error-icon{fill:#a44141;}#graph-div .error-text{fill:#ddd;stroke:#ddd;}#graph-div .edge-thickness-normal{stroke-width:2px;}#graph-div .edge-thickness-thick{stroke-width:3.5px;}#graph-div .edge-pattern-solid{stroke-dasharray:0;}#graph-div .edge-pattern-dashed{stroke-dasharray:3;}#graph-div .edge-pattern-dotted{stroke-dasharray:2;}#graph-div .marker{fill:lightgrey;stroke:lightgrey;}#graph-div .marker.cross{stroke:lightgrey;}#graph-div svg{font-family:"trebuchet ms",verdana,arial,sans-serif;font-size:16px;}#graph-div .entityBox{fill:#1f2020;stroke:#81B1DB;}#graph-div .attributeBoxOdd{fill:hsl(0, 0%, 32%);stroke:#81B1DB;}#graph-div .attributeBoxEven{fill:hsl(0, 0%, 22%);stroke:#81B1DB;}#graph-div .relationshipLabelBox{fill:hsl(20, 1.5873015873%, 12.3529411765%);opacity:0.7;background-color:hsl(20, 1.5873015873%, 12.3529411765%);}#graph-div .relationshipLabelBox rect{opacity:0.5;}#graph-div .relationshipLine{stroke:lightgrey;}#graph-div .entityTitleText{text-anchor:middle;font-size:18px;fill:#ccc;}#graph-div :root{--mermaid-font-family:"trebuchet ms",verdana,arial,sans-serif;}</style><g></g><defs><marker orient="auto" markerHeight="18" markerWidth="18" refY="9" refX="0" id="ONLY_ONE_START"><path d="M9,0 L9,18 M15,0 L15,18" fill="none" stroke="gray"></path></marker></defs><defs><marker orient="auto" markerHeight="18" markerWidth="18" refY="9" refX="18" id="ONLY_ONE_END"><path d="M3,0 L3,18 M9,0 L9,18" fill="none" stroke="gray"></path></marker></defs><defs><marker orient="auto" markerHeight="18" markerWidth="30" refY="9" refX="0" id="ZERO_OR_ONE_START"><circle r="6" cy="9" cx="21" fill="white" stroke="gray"></circle><path d="M9,0 L9,18" fill="none" stroke="gray"></path></marker></defs><defs><marker orient="auto" markerHeight="18" markerWidth="30" refY="9" refX="30" id="ZERO_OR_ONE_END"><circle r="6" cy="9" cx="9" fill="white" stroke="gray"></circle><path d="M21,0 L21,18" fill="none" stroke="gray"></path></marker></defs><defs><marker orient="auto" markerHeight="36" markerWidth="45" refY="18" refX="18" id="ONE_OR_MORE_START"><path d="M0,18 Q 18,0 36,18 Q 18,36 0,18 M42,9 L42,27" fill="none" stroke="gray"></path></marker></defs><defs><marker orient="auto" markerHeight="36" markerWidth="45" refY="18" refX="27" id="ONE_OR_MORE_END"><path d="M3,9 L3,27 M9,18 Q27,0 45,18 Q27,36 9,18" fill="none" stroke="gray"></path></marker></defs><defs><marker orient="auto" markerHeight="36" markerWidth="57" refY="18" refX="18" id="ZERO_OR_MORE_START"><circle r="6" cy="18" cx="48" fill="white" stroke="gray"></circle><path d="M0,18 Q18,0 36,18 Q18,36 0,18" fill="none" stroke="gray"></path></marker></defs><defs><marker orient="auto" markerHeight="36" markerWidth="57" refY="18" refX="39" id="ZERO_OR_MORE_END"><circle r="6" cy="18" cx="9" fill="white" stroke="gray"></circle><path d="M21,18 Q39,0 57,18 Q39,36 21,18" fill="none" stroke="gray"></path></marker></defs><path style="stroke: gray; fill: none;" marker-start="url(#ONLY_ONE_START)" marker-end="url(#ZERO_OR_MORE_END)" d="M82.44140625,132L82.44140625,140.33333333333334C82.44140625,148.66666666666666,82.44140625,165.33333333333334,82.44140625,182C82.44140625,198.66666666666666,82.44140625,215.33333333333334,82.44140625,223.66666666666666L82.44140625,232" class="er relationshipLine"></path><path style="stroke: gray; fill: none;" marker-start="url(#ONLY_ONE_START)" marker-end="url(#ZERO_OR_MORE_END)" d="M82.44140625,366L82.44140625,374.3333333333333C82.44140625,382.6666666666667,82.44140625,399.3333333333333,90.86751302083333,418.1348375083646C99.29361979166667,436.93634168339594,116.14583333333333,457.87268336679176,124.57194010416667,468.3408542084897L132.998046875,478.80902505018764" class="er relationshipLine"></path><path style="stroke: gray; fill: none;" marker-start="url(#ONLY_ONE_START)" marker-end="url(#ZERO_OR_MORE_END)" d="M306.2109375,366L306.2109375,374.3333333333333C306.2109375,382.6666666666667,306.2109375,399.3333333333333,297.7848307291667,418.1348375083646C289.3587239583333,436.93634168339594,272.5065104166667,457.87268336679176,264.0804036458333,468.3408542084897L255.654296875,478.80902505018764" class="er relationshipLine"></path><g transform="translate(21.11328125,20 )" id="entity-Customer-7db3a251-ee0f-5d85-b53f-42db636cc6f9"><rect height="112" width="122.65625" y="0" x="0" class="er entityBox"></rect><text transform="translate(61.328125,12)" style="dominant-baseline: middle; text-anchor: middle; font-size: 12px;" y="0" x="0" id="text-entity-Customer-7db3a251-ee0f-5d85-b53f-42db636cc6f9" class="er entityLabel">Customer</text><rect height="22" width="58.671875" y="24" x="0" class="er attributeBoxOdd"></rect><text transform="translate(5,35)" style="dominant-baseline: middle; font-size: 10.2px;" y="0" x="0" id="text-entity-Customer-7db3a251-ee0f-5d85-b53f-42db636cc6f9-attr-1-type" class="er entityLabel">int</text><rect height="22" width="63.984375" y="24" x="58.671875" class="er attributeBoxOdd"></rect><text transform="translate(63.671875,35)" style="dominant-baseline: middle; font-size: 10.2px;" y="0" x="0" id="text-entity-Customer-7db3a251-ee0f-5d85-b53f-42db636cc6f9-attr-1-name" class="er entityLabel">id</text><rect height="22" width="58.671875" y="46" x="0" class="er attributeBoxEven"></rect><text transform="translate(5,57)" style="dominant-baseline: middle; font-size: 10.2px;" y="0" x="0" id="text-entity-Customer-7db3a251-ee0f-5d85-b53f-42db636cc6f9-attr-2-type" class="er entityLabel">varchar</text><rect height="22" width="63.984375" y="46" x="58.671875" class="er attributeBoxEven"></rect><text transform="translate(63.671875,57)" style="dominant-baseline: middle; font-size: 10.2px;" y="0" x="0" id="text-entity-Customer-7db3a251-ee0f-5d85-b53f-42db636cc6f9-attr-2-name" class="er entityLabel">full_name</text><rect height="22" width="58.671875" y="68" x="0" class="er attributeBoxOdd"></rect><text transform="translate(5,79)" style="dominant-baseline: middle; font-size: 10.2px;" y="0" x="0" id="text-entity-Customer-7db3a251-ee0f-5d85-b53f-42db636cc6f9-attr-3-type" class="er entityLabel">timestamp</text><rect height="22" width="63.984375" y="68" x="58.671875" class="er attributeBoxOdd"></rect><text transform="translate(63.671875,79)" style="dominant-baseline: middle; font-size: 10.2px;" y="0" x="0" id="text-entity-Customer-7db3a251-ee0f-5d85-b53f-42db636cc6f9-attr-3-name" class="er entityLabel">created_on</text><rect height="22" width="58.671875" y="90" x="0" class="er attributeBoxEven"></rect><text transform="translate(5,101)" style="dominant-baseline: middle; font-size: 10.2px;" y="0" x="0" id="text-entity-Customer-7db3a251-ee0f-5d85-b53f-42db636cc6f9-attr-4-type" class="er entityLabel">timestamp</text><rect height="22" width="63.984375" y="90" x="58.671875" class="er attributeBoxEven"></rect><text transform="translate(63.671875,101)" style="dominant-baseline: middle; font-size: 10.2px;" y="0" x="0" id="text-entity-Customer-7db3a251-ee0f-5d85-b53f-42db636cc6f9-attr-4-name" class="er entityLabel">updated_on</text></g><g transform="translate(20,232 )" id="entity-Order-3ec22774-e93b-529c-bc12-1dfdb28f8e64"><rect height="134" width="124.8828125" y="0" x="0" class="er entityBox"></rect><text transform="translate(62.44140625,12)" style="dominant-baseline: middle; text-anchor: middle; font-size: 12px;" y="0" x="0" id="text-entity-Order-3ec22774-e93b-529c-bc12-1dfdb28f8e64" class="er entityLabel">Order</text><rect height="22" width="58.671875" y="24" x="0" class="er attributeBoxOdd"></rect><text transform="translate(5,35)" style="dominant-baseline: middle; font-size: 10.2px;" y="0" x="0" id="text-entity-Order-3ec22774-e93b-529c-bc12-1dfdb28f8e64-attr-1-type" class="er entityLabel">int</text><rect height="22" width="66.2109375" y="24" x="58.671875" class="er attributeBoxOdd"></rect><text transform="translate(63.671875,35)" style="dominant-baseline: middle; font-size: 10.2px;" y="0" x="0" id="text-entity-Order-3ec22774-e93b-529c-bc12-1dfdb28f8e64-attr-1-name" class="er entityLabel">id</text><rect height="22" width="58.671875" y="46" x="0" class="er attributeBoxEven"></rect><text transform="translate(5,57)" style="dominant-baseline: middle; font-size: 10.2px;" y="0" x="0" id="text-entity-Order-3ec22774-e93b-529c-bc12-1dfdb28f8e64-attr-2-type" class="er entityLabel">date</text><rect height="22" width="66.2109375" y="46" x="58.671875" class="er attributeBoxEven"></rect><text transform="translate(63.671875,57)" style="dominant-baseline: middle; font-size: 10.2px;" y="0" x="0" id="text-entity-Order-3ec22774-e93b-529c-bc12-1dfdb28f8e64-attr-2-name" class="er entityLabel">order_date</text><rect height="22" width="58.671875" y="68" x="0" class="er attributeBoxOdd"></rect><text transform="translate(5,79)" style="dominant-baseline: middle; font-size: 10.2px;" y="0" x="0" id="text-entity-Order-3ec22774-e93b-529c-bc12-1dfdb28f8e64-attr-3-type" class="er entityLabel">int</text><rect height="22" width="66.2109375" y="68" x="58.671875" class="er attributeBoxOdd"></rect><text transform="translate(63.671875,79)" style="dominant-baseline: middle; font-size: 10.2px;" y="0" x="0" id="text-entity-Order-3ec22774-e93b-529c-bc12-1dfdb28f8e64-attr-3-name" class="er entityLabel">customer_id</text><rect height="22" width="58.671875" y="90" x="0" class="er attributeBoxEven"></rect><text transform="translate(5,101)" style="dominant-baseline: middle; font-size: 10.2px;" y="0" x="0" id="text-entity-Order-3ec22774-e93b-529c-bc12-1dfdb28f8e64-attr-4-type" class="er entityLabel">timestamp</text><rect height="22" width="66.2109375" y="90" x="58.671875" class="er attributeBoxEven"></rect><text transform="translate(63.671875,101)" style="dominant-baseline: middle; font-size: 10.2px;" y="0" x="0" id="text-entity-Order-3ec22774-e93b-529c-bc12-1dfdb28f8e64-attr-4-name" class="er entityLabel">created_on</text><rect height="22" width="58.671875" y="112" x="0" class="er attributeBoxOdd"></rect><text transform="translate(5,123)" style="dominant-baseline: middle; font-size: 10.2px;" y="0" x="0" id="text-entity-Order-3ec22774-e93b-529c-bc12-1dfdb28f8e64-attr-5-type" class="er entityLabel">timestamp</text><rect height="22" width="66.2109375" y="112" x="58.671875" class="er attributeBoxOdd"></rect><text transform="translate(63.671875,123)" style="dominant-baseline: middle; font-size: 10.2px;" y="0" x="0" id="text-entity-Order-3ec22774-e93b-529c-bc12-1dfdb28f8e64-attr-5-name" class="er entityLabel">updated_on</text></g><g transform="translate(132.998046875,466 )" id="entity-OrderItem-4d4ac7c9-a974-525a-a211-bd0d8afb3983"><rect height="178" width="122.65625" y="0" x="0" class="er entityBox"></rect><text transform="translate(61.328125,12)" style="dominant-baseline: middle; text-anchor: middle; font-size: 12px;" y="0" x="0" id="text-entity-OrderItem-4d4ac7c9-a974-525a-a211-bd0d8afb3983" class="er entityLabel">OrderItem</text><rect height="22" width="58.671875" y="24" x="0" class="er attributeBoxOdd"></rect><text transform="translate(5,35)" style="dominant-baseline: middle; font-size: 10.2px;" y="0" x="0" id="text-entity-OrderItem-4d4ac7c9-a974-525a-a211-bd0d8afb3983-attr-1-type" class="er entityLabel">int</text><rect height="22" width="63.984375" y="24" x="58.671875" class="er attributeBoxOdd"></rect><text transform="translate(63.671875,35)" style="dominant-baseline: middle; font-size: 10.2px;" y="0" x="0" id="text-entity-OrderItem-4d4ac7c9-a974-525a-a211-bd0d8afb3983-attr-1-name" class="er entityLabel">id</text><rect height="22" width="58.671875" y="46" x="0" class="er attributeBoxEven"></rect><text transform="translate(5,57)" style="dominant-baseline: middle; font-size: 10.2px;" y="0" x="0" id="text-entity-OrderItem-4d4ac7c9-a974-525a-a211-bd0d8afb3983-attr-2-type" class="er entityLabel">int</text><rect height="22" width="63.984375" y="46" x="58.671875" class="er attributeBoxEven"></rect><text transform="translate(63.671875,57)" style="dominant-baseline: middle; font-size: 10.2px;" y="0" x="0" id="text-entity-OrderItem-4d4ac7c9-a974-525a-a211-bd0d8afb3983-attr-2-name" class="er entityLabel">order_id</text><rect height="22" width="58.671875" y="68" x="0" class="er attributeBoxOdd"></rect><text transform="translate(5,79)" style="dominant-baseline: middle; font-size: 10.2px;" y="0" x="0" id="text-entity-OrderItem-4d4ac7c9-a974-525a-a211-bd0d8afb3983-attr-3-type" class="er entityLabel">int</text><rect height="22" width="63.984375" y="68" x="58.671875" class="er attributeBoxOdd"></rect><text transform="translate(63.671875,79)" style="dominant-baseline: middle; font-size: 10.2px;" y="0" x="0" id="text-entity-OrderItem-4d4ac7c9-a974-525a-a211-bd0d8afb3983-attr-3-name" class="er entityLabel">product_id</text><rect height="22" width="58.671875" y="90" x="0" class="er attributeBoxEven"></rect><text transform="translate(5,101)" style="dominant-baseline: middle; font-size: 10.2px;" y="0" x="0" id="text-entity-OrderItem-4d4ac7c9-a974-525a-a211-bd0d8afb3983-attr-4-type" class="er entityLabel">int</text><rect height="22" width="63.984375" y="90" x="58.671875" class="er attributeBoxEven"></rect><text transform="translate(63.671875,101)" style="dominant-baseline: middle; font-size: 10.2px;" y="0" x="0" id="text-entity-OrderItem-4d4ac7c9-a974-525a-a211-bd0d8afb3983-attr-4-name" class="er entityLabel">quantity</text><rect height="22" width="58.671875" y="112" x="0" class="er attributeBoxOdd"></rect><text transform="translate(5,123)" style="dominant-baseline: middle; font-size: 10.2px;" y="0" x="0" id="text-entity-OrderItem-4d4ac7c9-a974-525a-a211-bd0d8afb3983-attr-5-type" class="er entityLabel">decimal</text><rect height="22" width="63.984375" y="112" x="58.671875" class="er attributeBoxOdd"></rect><text transform="translate(63.671875,123)" style="dominant-baseline: middle; font-size: 10.2px;" y="0" x="0" id="text-entity-OrderItem-4d4ac7c9-a974-525a-a211-bd0d8afb3983-attr-5-name" class="er entityLabel">amount</text><rect height="22" width="58.671875" y="134" x="0" class="er attributeBoxEven"></rect><text transform="translate(5,145)" style="dominant-baseline: middle; font-size: 10.2px;" y="0" x="0" id="text-entity-OrderItem-4d4ac7c9-a974-525a-a211-bd0d8afb3983-attr-6-type" class="er entityLabel">timestamp</text><rect height="22" width="63.984375" y="134" x="58.671875" class="er attributeBoxEven"></rect><text transform="translate(63.671875,145)" style="dominant-baseline: middle; font-size: 10.2px;" y="0" x="0" id="text-entity-OrderItem-4d4ac7c9-a974-525a-a211-bd0d8afb3983-attr-6-name" class="er entityLabel">created_on</text><rect height="22" width="58.671875" y="156" x="0" class="er attributeBoxOdd"></rect><text transform="translate(5,167)" style="dominant-baseline: middle; font-size: 10.2px;" y="0" x="0" id="text-entity-OrderItem-4d4ac7c9-a974-525a-a211-bd0d8afb3983-attr-7-type" class="er entityLabel">timestamp</text><rect height="22" width="63.984375" y="156" x="58.671875" class="er attributeBoxOdd"></rect><text transform="translate(63.671875,167)" style="dominant-baseline: middle; font-size: 10.2px;" y="0" x="0" id="text-entity-OrderItem-4d4ac7c9-a974-525a-a211-bd0d8afb3983-attr-7-name" class="er entityLabel">updated_on</text></g><g transform="translate(244.8828125,232 )" id="entity-Product-8913f459-c6e1-5923-8b2e-55129fac4b99"><rect height="134" width="122.65625" y="0" x="0" class="er entityBox"></rect><text transform="translate(61.328125,12)" style="dominant-baseline: middle; text-anchor: middle; font-size: 12px;" y="0" x="0" id="text-entity-Product-8913f459-c6e1-5923-8b2e-55129fac4b99" class="er entityLabel">Product</text><rect height="22" width="58.671875" y="24" x="0" class="er attributeBoxOdd"></rect><text transform="translate(5,35)" style="dominant-baseline: middle; font-size: 10.2px;" y="0" x="0" id="text-entity-Product-8913f459-c6e1-5923-8b2e-55129fac4b99-attr-1-type" class="er entityLabel">int</text><rect height="22" width="63.984375" y="24" x="58.671875" class="er attributeBoxOdd"></rect><text transform="translate(63.671875,35)" style="dominant-baseline: middle; font-size: 10.2px;" y="0" x="0" id="text-entity-Product-8913f459-c6e1-5923-8b2e-55129fac4b99-attr-1-name" class="er entityLabel">id</text><rect height="22" width="58.671875" y="46" x="0" class="er attributeBoxEven"></rect><text transform="translate(5,57)" style="dominant-baseline: middle; font-size: 10.2px;" y="0" x="0" id="text-entity-Product-8913f459-c6e1-5923-8b2e-55129fac4b99-attr-2-type" class="er entityLabel">varchar</text><rect height="22" width="63.984375" y="46" x="58.671875" class="er attributeBoxEven"></rect><text transform="translate(63.671875,57)" style="dominant-baseline: middle; font-size: 10.2px;" y="0" x="0" id="text-entity-Product-8913f459-c6e1-5923-8b2e-55129fac4b99-attr-2-name" class="er entityLabel">description</text><rect height="22" width="58.671875" y="68" x="0" class="er attributeBoxOdd"></rect><text transform="translate(5,79)" style="dominant-baseline: middle; font-size: 10.2px;" y="0" x="0" id="text-entity-Product-8913f459-c6e1-5923-8b2e-55129fac4b99-attr-3-type" class="er entityLabel">decimal</text><rect height="22" width="63.984375" y="68" x="58.671875" class="er attributeBoxOdd"></rect><text transform="translate(63.671875,79)" style="dominant-baseline: middle; font-size: 10.2px;" y="0" x="0" id="text-entity-Product-8913f459-c6e1-5923-8b2e-55129fac4b99-attr-3-name" class="er entityLabel">price</text><rect height="22" width="58.671875" y="90" x="0" class="er attributeBoxEven"></rect><text transform="translate(5,101)" style="dominant-baseline: middle; font-size: 10.2px;" y="0" x="0" id="text-entity-Product-8913f459-c6e1-5923-8b2e-55129fac4b99-attr-4-type" class="er entityLabel">timestamp</text><rect height="22" width="63.984375" y="90" x="58.671875" class="er attributeBoxEven"></rect><text transform="translate(63.671875,101)" style="dominant-baseline: middle; font-size: 10.2px;" y="0" x="0" id="text-entity-Product-8913f459-c6e1-5923-8b2e-55129fac4b99-attr-4-name" class="er entityLabel">created_on</text><rect height="22" width="58.671875" y="112" x="0" class="er attributeBoxOdd"></rect><text transform="translate(5,123)" style="dominant-baseline: middle; font-size: 10.2px;" y="0" x="0" id="text-entity-Product-8913f459-c6e1-5923-8b2e-55129fac4b99-attr-5-type" class="er entityLabel">timestamp</text><rect height="22" width="63.984375" y="112" x="58.671875" class="er attributeBoxOdd"></rect><text transform="translate(63.671875,123)" style="dominant-baseline: middle; font-size: 10.2px;" y="0" x="0" id="text-entity-Product-8913f459-c6e1-5923-8b2e-55129fac4b99-attr-5-name" class="er entityLabel">updated_on</text></g><rect height="0" width="0" y="182" x="82.44140625" class="er relationshipLabelBox"></rect><text style="text-anchor: middle; dominant-baseline: middle; font-size: 12px;" y="182" x="82.44140625" id="rel52" class="er relationshipLabel"></text><rect height="0" width="0" y="427.391357421875" x="95.55706024169922" class="er relationshipLabelBox"></rect><text style="text-anchor: middle; dominant-baseline: middle; font-size: 12px;" y="427.391357421875" x="95.55706024169922" id="rel53" class="er relationshipLabel"></text><rect height="0" width="0" y="427.391357421875" x="293.09527587890625" class="er relationshipLabelBox"></rect><text style="text-anchor: middle; dominant-baseline: middle; font-size: 12px;" y="427.391357421875" x="293.09527587890625" id="rel54" class="er relationshipLabel"></text></svg>